<svg xmlns="http://www.w3.org/2000/svg" xmlns:xlink="http://www.w3.org/1999/xlink" width="1080" zoomAndPan="magnify" viewBox="0 0 810 1439.999935" height="1920" preserveAspectRatio="xMidYMid meet" version="1.0"><defs><clipPath id="4e12b74a60"><path d="M 209 531.164062 L 603 531.164062 L 603 907 L 209 907 Z M 209 531.164062 " clip-rule="nonzero"/></clipPath></defs><path fill="#8c52ff" d="M 229.027344 1100.730469 L 20.640625 1100.730469 C 12.839844 1100.730469 6.453125 1107.113281 6.453125 1114.917969 L 6.453125 1425.5 C 6.453125 1433.300781 12.839844 1439.6875 20.640625 1439.6875 L 229.027344 1439.6875 C 236.828125 1439.6875 243.210938 1433.300781 243.210938 1425.5 L 243.210938 1114.917969 C 243.210938 1107.113281 236.828125 1100.730469 229.027344 1100.730469 Z M 157.703125 1318.703125 L 92.957031 1318.703125 L 92.957031 1305.152344 C 114.292969 1283.402344 128.578125 1270.265625 135.359375 1261 C 140.382812 1254.117188 141.273438 1245.777344 135.089844 1240.074219 C 128.28125 1233.800781 114.082031 1233.589844 104.746094 1247.988281 L 91.878906 1240.539062 C 107.214844 1217.511719 131.855469 1217.511719 145.785156 1229.234375 C 155.886719 1237.730469 157.246094 1252.644531 150.933594 1263.710938 C 145.019531 1274.066406 130.59375 1286.808594 114.777344 1303.410156 L 157.714844 1303.410156 L 157.714844 1318.703125 Z M 157.703125 1318.703125 " fill-opacity="1" fill-rule="nonzero"/><path fill="#8c52ff" d="M 509.902344 949.199219 L 301.515625 949.199219 C 293.570312 949.199219 287.332031 955.441406 287.332031 963.386719 L 287.332031 1425.5 C 287.332031 1433.300781 293.570312 1439.6875 301.515625 1439.6875 L 509.902344 1439.6875 C 517.847656 1439.6875 524.089844 1433.300781 524.089844 1425.5 L 524.089844 963.386719 C 524.089844 955.441406 517.847656 949.199219 509.902344 949.199219 Z M 432.929688 1178.339844 L 381.382812 1178.339844 L 381.382812 1160.050781 L 398.742188 1160.050781 L 398.742188 1079.875 L 378.5 1088.328125 L 378.5 1071.191406 L 415.566406 1051.554688 L 415.566406 1160.050781 L 432.929688 1160.050781 Z M 432.929688 1178.339844 " fill-opacity="1" fill-rule="nonzero"/><path fill="#8c52ff" d="M 790.777344 1177.347656 L 582.390625 1177.347656 C 574.589844 1177.347656 568.207031 1183.730469 568.207031 1191.535156 L 568.207031 1425.5 C 568.207031 1433.300781 574.589844 1439.6875 582.390625 1439.6875 L 790.777344 1439.6875 C 798.722656 1439.6875 804.964844 1433.300781 804.964844 1425.5 L 804.964844 1191.535156 C 804.964844 1183.730469 798.722656 1177.347656 790.777344 1177.347656 Z M 653.148438 1347.578125 L 660.101562 1334.382812 C 678.101562 1346.9375 704.558594 1345.730469 704.558594 1327.371094 C 704.558594 1315.640625 693.167969 1311.054688 681.492188 1311.054688 C 677.875 1311.054688 674.414062 1311.566406 671.078125 1312.589844 L 671.078125 1300.089844 L 693.578125 1273.96875 L 658.425781 1273.96875 L 658.425781 1259.355469 L 715.238281 1259.355469 L 715.238281 1272.136719 L 691.761719 1298.398438 C 709.933594 1298.96875 720.105469 1311.4375 720.105469 1325.910156 C 720.121094 1358.359375 681.4375 1366.53125 653.148438 1347.578125 Z M 653.148438 1347.578125 " fill-opacity="1" fill-rule="nonzero"/><g clip-path="url(#4e12b74a60)"><path fill="#8c52ff" d="M 512.03125 771.847656 L 597.710938 688.28125 C 601.683594 684.589844 602.960938 678.914062 601.398438 673.808594 C 599.699219 668.699219 595.160156 664.867188 589.910156 664.160156 L 471.460938 646.851562 L 418.40625 539.585938 C 415.992188 534.761719 411.171875 531.640625 405.78125 531.640625 C 400.246094 531.640625 395.425781 534.761719 393.011719 539.585938 L 339.957031 646.851562 L 221.507812 664.160156 C 216.261719 664.867188 211.71875 668.699219 210.160156 673.808594 C 208.457031 678.914062 209.875 684.589844 213.707031 688.28125 L 299.386719 771.847656 L 279.101562 889.894531 C 278.25 895.285156 280.519531 900.675781 284.777344 903.796875 C 289.175781 906.917969 294.992188 907.34375 299.8125 904.933594 L 405.78125 849.171875 L 511.605469 904.933594 C 516.429688 907.34375 522.246094 906.917969 526.640625 903.796875 C 531.039062 900.675781 533.167969 895.285156 532.316406 889.894531 Z M 512.03125 771.847656 " fill-opacity="1" fill-rule="nonzero"/></g><path fill="#8c52ff" d="M 235.976562 901.527344 L 167.886719 891.597656 L 137.53125 830.019531 C 132.707031 820.371094 116.820312 820.371094 112.136719 830.019531 L 81.636719 891.597656 L 13.546875 901.527344 C 8.296875 902.378906 3.902344 906.066406 2.199219 911.175781 C 0.496094 916.285156 1.914062 921.960938 5.746094 925.789062 L 54.96875 973.746094 L 43.335938 1041.566406 C 42.484375 1046.816406 44.613281 1052.207031 49.011719 1055.46875 C 53.410156 1058.589844 59.226562 1059.015625 63.90625 1056.464844 L 124.761719 1024.539062 L 185.617188 1056.464844 C 190.441406 1059.015625 196.257812 1058.589844 200.65625 1055.46875 C 204.910156 1052.207031 207.179688 1046.816406 206.1875 1041.566406 L 194.554688 973.746094 L 243.78125 925.789062 C 247.753906 921.960938 249.027344 916.285156 247.46875 911.175781 C 245.765625 906.066406 241.367188 902.378906 235.976562 901.527344 Z M 235.976562 901.527344 " fill-opacity="1" fill-rule="nonzero"/><path fill="#8c52ff" d="M 809.21875 987.792969 C 807.660156 982.683594 803.121094 978.996094 797.871094 978.144531 L 729.78125 968.355469 L 699.421875 906.636719 C 694.601562 896.988281 678.710938 896.988281 673.890625 906.636719 L 643.53125 968.355469 L 575.441406 978.144531 C 570.050781 978.996094 565.652344 982.683594 563.949219 987.792969 C 562.390625 993.042969 563.667969 998.574219 567.636719 1002.40625 L 616.863281 1050.363281 L 605.230469 1118.183594 C 604.238281 1123.429688 606.507812 1128.824219 610.90625 1132.085938 C 615.160156 1135.207031 620.976562 1135.632812 625.800781 1133.078125 L 686.65625 1101.15625 L 747.511719 1133.078125 C 752.335938 1135.632812 758.007812 1135.207031 762.40625 1132.085938 C 766.804688 1128.824219 768.933594 1123.429688 768.082031 1118.183594 L 756.449219 1050.363281 L 805.671875 1002.40625 C 809.503906 998.574219 810.921875 993.042969 809.21875 987.792969 Z M 809.21875 987.792969 " fill-opacity="1" fill-rule="nonzero"/></svg>